<?xml version="1.0" ?><svg id="Layer_1" style="enable-background:new 0 0 48 48;" version="1.1" viewBox="0 0 48 48" xml:space="preserve" xmlns="http://www.w3.org/2000/svg" xmlns:xlink="http://www.w3.org/1999/xlink"><g><g><path fill="#765A9A" d="M41,13.5H7c-0.6,0-1-0.4-1-1s0.4-1,1-1h34c0.6,0,1,0.4,1,1S41.6,13.5,41,13.5z"/></g><g><path fill="#765A9A" d="M41,25H7c-0.6,0-1-0.4-1-1s0.4-1,1-1h34c0.6,0,1,0.4,1,1S41.6,25,41,25z"/></g><g><path fill="#765A9A" d="M41,36.5H7c-0.6,0-1-0.4-1-1s0.4-1,1-1h34c0.6,0,1,0.4,1,1S41.6,36.5,41,36.5z"/></g></g></svg>